<svg width="90" height="89" viewBox="0 0 90 89" fill="none" xmlns="http://www.w3.org/2000/svg">
<path d="M29.6484 71.0156C29.6484 71.375 29.2891 71.5547 28.75 71.5547C28.2109 71.7344 27.8516 71.375 27.8516 71.0156C27.8516 70.6562 28.2109 70.2969 28.75 70.2969C29.2891 70.2969 29.6484 70.6562 29.6484 71.0156ZM24.0781 70.1172C24.0781 70.4766 24.4375 71.0156 24.9766 71.0156C25.3359 71.1953 25.875 71.0156 26.0547 70.6562C26.0547 70.2969 25.875 69.9375 25.3359 69.7578C24.7969 69.5781 24.2578 69.7578 24.0781 70.1172ZM32.1641 69.9375C31.625 69.9375 31.2656 70.2969 31.2656 70.8359C31.2656 71.1953 31.8047 71.375 32.3438 71.1953C32.8828 71.0156 33.2422 70.8359 33.0625 70.4766C33.0625 70.1172 32.5234 69.7578 32.1641 69.9375ZM43.8438 0.9375C19.0469 0.9375 0 19.9844 0 44.7812C0 64.7266 12.3984 81.7969 30.3672 87.9062C32.7031 88.2656 33.4219 86.8281 33.4219 85.75C33.4219 84.4922 33.4219 78.3828 33.4219 74.6094C33.4219 74.6094 20.8438 77.3047 18.1484 69.2188C18.1484 69.2188 16.1719 64.0078 13.2969 62.75C13.2969 62.75 9.16406 59.875 13.4766 59.875C13.4766 59.875 17.9688 60.2344 20.4844 64.5469C24.4375 71.5547 30.9062 69.5781 33.6016 68.3203C33.9609 65.4453 35.0391 63.4688 36.4766 62.2109C26.4141 61.1328 16.1719 59.6953 16.1719 42.4453C16.1719 37.4141 17.6094 35.0781 20.4844 31.8438C19.9453 30.5859 18.5078 25.9141 21.0234 19.625C24.6172 18.5469 33.4219 24.4766 33.4219 24.4766C37.0156 23.3984 40.7891 23.0391 44.5625 23.0391C48.5156 23.0391 52.2891 23.3984 55.8828 24.4766C55.8828 24.4766 64.5078 18.3672 68.2812 19.625C70.7969 25.9141 69.1797 30.5859 68.8203 31.8438C71.6953 35.0781 73.4922 37.4141 73.4922 42.4453C73.4922 59.6953 62.8906 61.1328 52.8281 62.2109C54.4453 63.6484 55.8828 66.3438 55.8828 70.6562C55.8828 76.5859 55.7031 84.1328 55.7031 85.5703C55.7031 86.8281 56.6016 88.2656 58.9375 87.7266C76.9062 81.7969 89.125 64.7266 89.125 44.7812C89.125 19.9844 68.8203 0.9375 43.8438 0.9375ZM17.4297 62.9297C17.0703 63.1094 17.25 63.6484 17.4297 64.0078C17.7891 64.1875 18.1484 64.3672 18.5078 64.1875C18.6875 64.0078 18.6875 63.4688 18.3281 63.1094C17.9688 62.9297 17.6094 62.75 17.4297 62.9297ZM15.4531 61.4922C15.2734 61.8516 15.4531 62.0312 15.8125 62.2109C16.1719 62.3906 16.5312 62.3906 16.7109 62.0312C16.7109 61.8516 16.5312 61.6719 16.1719 61.4922C15.8125 61.3125 15.6328 61.3125 15.4531 61.4922ZM21.2031 67.9609C21.0234 68.1406 21.0234 68.6797 21.5625 69.0391C21.9219 69.3984 22.4609 69.5781 22.6406 69.2188C22.8203 69.0391 22.8203 68.5 22.4609 68.1406C22.1016 67.7812 21.5625 67.6016 21.2031 67.9609ZM19.2266 65.2656C18.8672 65.4453 18.8672 65.9844 19.2266 66.3438C19.5859 66.7031 19.9453 66.8828 20.3047 66.7031C20.4844 66.5234 20.4844 65.9844 20.3047 65.625C19.9453 65.2656 19.5859 65.0859 19.2266 65.2656Z" fill="white"/>
</svg>
