<svg width="81" height="81" viewBox="0 0 81 81" fill="none" xmlns="http://www.w3.org/2000/svg">
<path d="M74.75 0.25H5.57031C2.51562 0.25 0 2.94531 0 6.17969V75C0 78.2344 2.51562 80.75 5.57031 80.75H74.75C77.8047 80.75 80.5 78.2344 80.5 75V6.17969C80.5 2.94531 77.8047 0.25 74.75 0.25ZM24.2578 69.25H12.3984V30.9766H24.2578V69.25ZM18.3281 25.5859C14.375 25.5859 11.3203 22.5312 11.3203 18.7578C11.3203 14.9844 14.375 11.75 18.3281 11.75C22.1016 11.75 25.1562 14.9844 25.1562 18.7578C25.1562 22.5312 22.1016 25.5859 18.3281 25.5859ZM69 69.25H56.9609V50.5625C56.9609 46.25 56.9609 40.5 50.8516 40.5C44.5625 40.5 43.6641 45.3516 43.6641 50.3828V69.25H31.8047V30.9766H43.125V36.1875H43.3047C44.9219 33.1328 48.875 29.8984 54.625 29.8984C66.6641 29.8984 69 37.9844 69 48.2266V69.25Z" fill="white"/>
</svg>
