<svg width="514" height="290" viewBox="0 0 514 290" fill="none" xmlns="http://www.w3.org/2000/svg">
<path d="M25 110.017C37.2418 93.0668 78.166 82.8647 98.0798 75.0349C150.591 54.3883 305.739 -10.9181 253.503 10.1231C196.902 32.9224 144.972 63.5999 91.3894 90.194C90.7401 90.5162 51.719 109.704 72.0902 104.576C123.93 91.5246 175.328 71.8145 222.624 51.3246C222.844 51.2295 281.674 22.7221 263.024 35.7769C211.453 71.8765 148.016 98.8367 90.8747 129.452C79.5112 135.54 64.1682 139.475 57.9374 148.887C56.7834 150.63 62.8979 147.71 65.1424 146.749C85.751 137.921 127.288 116.937 142.082 109.434C193.245 83.4867 241.631 53.6605 293.645 28.7804C307.722 22.0469 272.406 48.2001 260.965 57.3494C231.858 80.6264 224.563 85.4259 193.547 108.851C189.294 112.063 127.842 151.622 131.532 162.491C132.509 165.37 139.352 161.063 142.597 159.381C154.228 153.355 164.999 146.418 175.791 139.558C227.656 106.59 277.217 71.6037 329.156 38.6921C335.572 34.6267 362.234 17.6004 340.478 33.4447C284.238 74.4042 226.57 114.328 169.616 154.717C135.464 178.935 100.934 202.852 67.201 227.403C56.5776 235.135 32.2929 252.525 67.201 233.622C141.165 193.569 207.958 147.221 279.75 105.353C336.877 72.0376 181.754 185.827 126.385 220.795C119.541 225.118 112.601 229.376 105.285 233.233C102.498 234.703 110.153 229.644 112.747 227.986C431.331 24.3888 -299.917 493.431 219.022 160.742C254.365 138.083 289.084 114.866 324.782 92.5261C355.236 73.4681 330.267 95.6343 324.524 101.466C319.962 106.099 254.634 165.682 287.47 147.915C329.869 124.973 363.503 90.7797 407.897 70.3706C419.192 65.1781 389.049 84.3808 379.591 91.3601C330.698 127.442 282.591 164.117 233.946 200.389C219.179 211.4 207.925 226.829 188.658 232.65C185.939 233.471 191.481 228.753 193.289 227.014C212.858 208.204 233.754 190.204 254.018 171.82C275.221 152.582 317.558 113.952 339.964 94.4696C355.078 81.3276 395.22 40.6762 388.598 57.3494C384.466 67.7503 369.136 73.3581 358.748 80.8653C301.615 122.154 242.525 161.872 185.57 203.304C173.163 212.329 160.819 221.416 149.03 230.901C145.014 234.132 132.974 239.414 138.222 241.396C144.314 243.696 150.12 236.356 155.72 233.428C179.495 220.996 246.866 182.466 263.281 173.18C294.228 155.674 336.996 131.386 369.813 113.321C412.161 90.0113 371.969 118.352 364.152 124.788C336.278 147.736 316.965 163.1 289.528 186.59C280.875 193.999 272.311 201.472 264.053 209.134C258.502 214.285 244.24 226.336 262.509 216.714C279.49 207.77 334.261 174.37 343.052 169.099C346.499 167.031 426.902 110.406 440.834 110.406C445.878 110.406 433.143 115.342 429.512 117.986C418.9 125.711 408.407 133.531 398.119 141.502C355.531 174.494 315.537 209.669 271.258 241.396C268.197 243.59 260.699 250.389 261.223 247.226C261.878 243.265 267.958 241.049 271.773 238.286C304.704 214.437 341.304 193.193 377.018 171.82C386.834 165.945 402.05 146.547 407.382 155.106C408.892 157.529 403.81 159.744 401.721 161.908C388.742 175.358 371.651 190.579 357.976 202.915C353.554 206.904 320.704 236.44 311.658 243.728C310.156 244.938 306.427 248.496 306.512 246.838C306.922 238.788 316.666 232.665 321.436 225.459" stroke="#082C63" stroke-width="12" stroke-linecap="square"/>
<path d="M18.868 137.327C21.6567 133.114 25.009 131.008 28.925 131.008C34.977 131.008 39.4863 133.589 42.453 138.751C43.1057 137.861 43.877 136.941 44.767 135.992C45.7163 134.983 47.1997 133.915 49.217 132.788C51.2343 131.601 53.311 131.008 55.447 131.008C60.1937 131.008 64.169 132.847 67.373 136.526C70.577 140.145 72.179 146.168 72.179 154.593V170.168C72.179 171.533 72.1197 172.571 72.001 173.283C71.9417 173.936 71.6747 174.707 71.2 175.597C70.4287 177.199 68.1443 178 64.347 178C60.609 178 58.3247 177.169 57.494 175.508C57.0787 174.618 56.8117 173.847 56.693 173.194C56.6337 172.482 56.604 171.444 56.604 170.079V154.504C56.604 149.342 54.7647 146.761 51.086 146.761C49.0093 146.761 47.5853 147.443 46.814 148.808C46.102 150.173 45.746 152.101 45.746 154.593V170.168C45.746 171.592 45.6867 172.63 45.568 173.283C45.5087 173.936 45.2417 174.707 44.767 175.597C43.9363 177.199 41.6223 178 37.825 178C34.087 178 31.8027 177.169 30.972 175.508C30.5567 174.618 30.2897 173.847 30.171 173.194C30.1117 172.482 30.082 171.444 30.082 170.079V154.504C30.082 149.342 28.2427 146.761 24.564 146.761C21.004 146.761 19.224 149.342 19.224 154.504V170.257C19.224 171.622 19.1647 172.66 19.046 173.372C18.9867 174.025 18.7197 174.796 18.245 175.686C17.355 177.229 15.041 178 11.303 178C7.565 178 5.28067 177.199 4.45 175.597C4.03467 174.707 3.76767 173.936 3.649 173.283C3.58967 172.63 3.56 171.592 3.56 170.168V138.84C3.56 137.475 3.58967 136.467 3.649 135.814C3.76767 135.102 4.06433 134.331 4.539 133.5C5.429 131.898 7.53533 131.097 10.858 131.097C14.1807 131.097 16.3463 131.631 17.355 132.699C18.3637 133.767 18.868 135.31 18.868 137.327ZM120.178 131.631C123.678 133.174 125.429 135.043 125.429 137.238C125.429 138.306 125.191 139.315 124.717 140.264C124.242 141.213 124.005 141.718 124.005 141.777L100.687 193.931C100.212 195.058 99.7968 195.919 99.4408 196.512C99.1441 197.105 98.6398 197.669 97.9278 198.203C97.2158 198.737 96.3258 199.004 95.2578 199.004C94.1898 199.004 92.6175 198.559 90.5408 197.669C87.0401 196.126 85.2898 194.287 85.2898 192.151C85.2898 190.727 88.1378 183.933 93.8338 171.77L76.1228 141.955C74.9361 139.997 74.3428 138.543 74.3428 137.594C74.3428 135.695 75.9448 133.797 79.1488 131.898C81.1661 130.711 82.7385 130.118 83.8658 130.118C84.9931 130.118 85.9128 130.355 86.6248 130.83C87.3368 131.305 87.8411 131.809 88.1378 132.343C88.4938 132.818 90.1255 135.577 93.0328 140.62C95.9995 145.604 98.8178 150.262 101.488 154.593C101.784 153.644 103.386 149.995 106.294 143.646C109.201 137.238 110.744 133.826 110.922 133.411C111.159 132.996 111.515 132.491 111.99 131.898C112.761 130.889 113.829 130.385 115.194 130.385C116.618 130.385 118.279 130.8 120.178 131.631ZM185.179 154.593C185.179 147.473 187.671 141.599 192.655 136.971C197.639 132.343 203.335 130.029 209.743 130.029C216.151 130.029 221.817 132.343 226.742 136.971C231.667 141.54 234.129 147.384 234.129 154.504C234.129 159.429 232.853 163.819 230.302 167.676C227.751 171.473 224.636 174.292 220.957 176.131C217.338 177.911 213.57 178.801 209.654 178.801C205.738 178.801 201.941 177.852 198.262 175.953C194.583 173.995 191.468 171.147 188.917 167.409C186.425 163.612 185.179 159.34 185.179 154.593ZM203.78 161.001C205.679 162.425 207.607 163.137 209.565 163.137C211.523 163.137 213.481 162.395 215.439 160.912C217.397 159.429 218.376 157.233 218.376 154.326C218.376 151.419 217.456 149.253 215.617 147.829C213.778 146.405 211.79 145.693 209.654 145.693C207.518 145.693 205.53 146.435 203.691 147.918C201.852 149.401 200.932 151.597 200.932 154.504C200.932 157.352 201.881 159.518 203.78 161.001ZM271.741 131.631C272.869 131.987 273.788 132.61 274.5 133.5C275.272 134.331 275.657 135.695 275.657 137.594C275.657 139.493 275.094 141.569 273.966 143.824C272.839 146.079 271.207 147.206 269.071 147.206C268.003 147.206 266.965 146.969 265.956 146.494C265.007 146.019 263.731 145.782 262.129 145.782C260.527 145.782 259.014 146.346 257.59 147.473C256.226 148.6 255.543 149.965 255.543 151.567V170.257C255.543 171.622 255.484 172.66 255.365 173.372C255.306 174.025 255.039 174.796 254.564 175.686C253.674 177.229 251.36 178 247.622 178C244.774 178 242.727 177.496 241.481 176.487C240.532 175.656 239.998 174.381 239.879 172.66C239.879 172.067 239.879 171.206 239.879 170.079V138.84C239.879 137.475 239.909 136.467 239.968 135.814C240.087 135.102 240.354 134.331 240.769 133.5C241.6 131.898 243.914 131.097 247.711 131.097C251.271 131.097 253.496 131.779 254.386 133.144C255.039 134.093 255.365 135.072 255.365 136.081C255.662 135.666 256.077 135.161 256.611 134.568C257.205 133.975 258.421 133.174 260.26 132.165C262.1 131.156 263.702 130.652 265.066 130.652C266.49 130.652 267.677 130.741 268.626 130.919C269.576 131.038 270.614 131.275 271.741 131.631ZM307.789 146.85L302.004 146.494V158.776C302.004 160.378 302.241 161.535 302.716 162.247C303.25 162.959 304.199 163.315 305.564 163.315C306.988 163.315 308.056 163.374 308.768 163.493C309.539 163.552 310.34 163.819 311.171 164.294C312.536 165.065 313.218 167.053 313.218 170.257C313.218 173.995 312.387 176.279 310.726 177.11C309.836 177.525 309.035 177.792 308.323 177.911C307.67 177.97 306.691 178 305.386 178C299.215 178 294.528 176.606 291.324 173.817C288.12 171.028 286.518 166.311 286.518 159.666V146.494C285.391 146.672 284.174 146.761 282.869 146.761C281.564 146.761 280.466 146.257 279.576 145.248C278.745 144.239 278.33 142.519 278.33 140.086C278.33 137.653 278.478 135.903 278.775 134.835C279.072 133.708 279.487 132.907 280.021 132.432C280.97 131.661 282.157 131.275 283.581 131.275L286.518 131.631V122.464C286.518 121.099 286.548 120.091 286.607 119.438C286.726 118.785 287.022 118.073 287.497 117.302C288.268 115.819 290.553 115.077 294.35 115.077C298.385 115.077 300.788 116.175 301.559 118.37C301.856 119.319 302.004 120.832 302.004 122.909V131.631C304.615 131.394 306.573 131.275 307.878 131.275C309.243 131.275 310.251 131.334 310.904 131.453C311.616 131.512 312.417 131.779 313.307 132.254C314.85 133.025 315.621 135.31 315.621 139.107C315.621 142.845 314.82 145.129 313.218 145.96C312.328 146.375 311.527 146.642 310.815 146.761C310.162 146.82 309.154 146.85 307.789 146.85ZM347.948 131.186C352.042 131.186 354.445 132.313 355.157 134.568C355.513 135.695 355.691 137.179 355.691 139.018C355.691 140.857 355.483 142.341 355.068 143.468C354.712 144.536 354.118 145.307 353.288 145.782C352.042 146.494 350.232 146.85 347.859 146.85L342.163 146.494V170.346C342.163 172.601 341.866 174.292 341.273 175.419C340.739 176.487 339.878 177.199 338.692 177.555C337.564 177.911 336.081 178.089 334.242 178.089C332.402 178.089 330.919 177.911 329.792 177.555C328.724 177.14 327.952 176.517 327.478 175.686C327.003 174.796 326.706 173.995 326.588 173.283C326.528 172.571 326.499 171.533 326.499 170.168V146.583H323.295C321.752 146.464 320.654 146.108 320.002 145.515C318.874 144.388 318.311 142.222 318.311 139.018C318.311 134.153 320.061 131.72 323.562 131.72H326.499V127.003C326.499 122.434 328.13 118.311 331.394 114.632C334.657 110.894 339.374 109.025 345.545 109.025C346.909 109.025 347.918 109.084 348.571 109.203C349.283 109.262 350.084 109.529 350.974 110.004C352.576 110.775 353.377 113.06 353.377 116.857C353.377 119.705 352.872 121.752 351.864 122.998C351.033 123.947 349.728 124.481 347.948 124.6C347.414 124.6 346.583 124.6 345.456 124.6C343.26 124.6 342.163 125.342 342.163 126.825V131.72L347.948 131.186ZM357.53 154.593C357.53 147.473 360.022 141.599 365.006 136.971C369.99 132.343 375.686 130.029 382.094 130.029C388.502 130.029 394.168 132.343 399.093 136.971C404.017 141.54 406.48 147.384 406.48 154.504C406.48 159.429 405.204 163.819 402.653 167.676C400.101 171.473 396.986 174.292 393.308 176.131C389.688 177.911 385.921 178.801 382.005 178.801C378.089 178.801 374.291 177.852 370.613 175.953C366.934 173.995 363.819 171.147 361.268 167.409C358.776 163.612 357.53 159.34 357.53 154.593ZM376.131 161.001C378.029 162.425 379.958 163.137 381.916 163.137C383.874 163.137 385.832 162.395 387.79 160.912C389.748 159.429 390.727 157.233 390.727 154.326C390.727 151.419 389.807 149.253 387.968 147.829C386.128 146.405 384.141 145.693 382.005 145.693C379.869 145.693 377.881 146.435 376.042 147.918C374.202 149.401 373.283 151.597 373.283 154.504C373.283 157.352 374.232 159.518 376.131 161.001ZM412.23 116.857C412.23 115.492 412.26 114.484 412.319 113.831C412.438 113.119 412.705 112.318 413.12 111.428C413.951 109.826 416.265 109.025 420.062 109.025C423.681 109.025 425.936 109.826 426.826 111.428C427.301 112.318 427.568 113.119 427.627 113.831C427.746 114.543 427.805 115.581 427.805 116.946V158.153C427.805 160.289 427.983 161.654 428.339 162.247C428.695 162.781 429.466 163.048 430.653 163.048C431.899 163.048 432.73 163.107 433.145 163.226C433.56 163.285 434.065 163.523 434.658 163.938C435.845 164.709 436.438 166.816 436.438 170.257C436.438 173.995 435.845 176.279 434.658 177.11C433.115 178.178 429.437 178.356 423.622 177.644C419.053 177.051 416.087 175.538 414.722 173.105C413.061 170.198 412.23 165.57 412.23 159.221V116.857ZM441.346 138.929C441.346 137.564 441.376 136.556 441.435 135.903C441.554 135.191 441.821 134.39 442.236 133.5C443.067 131.957 445.381 131.186 449.178 131.186C452.026 131.186 454.043 131.69 455.23 132.699C456.239 133.53 456.773 134.805 456.832 136.526C456.891 137.119 456.921 137.98 456.921 139.107V170.257C456.921 171.622 456.862 172.66 456.743 173.372C456.684 174.025 456.417 174.796 455.942 175.686C455.171 177.229 452.886 178 449.089 178C445.351 178 443.067 177.199 442.236 175.597C441.821 174.707 441.554 173.936 441.435 173.283C441.376 172.63 441.346 171.592 441.346 170.168V138.929ZM455.942 122.464C455.527 123.295 454.755 123.888 453.628 124.244C452.501 124.6 450.988 124.778 449.089 124.778C447.25 124.778 445.766 124.6 444.639 124.244C443.512 123.888 442.711 123.265 442.236 122.375C441.821 121.485 441.554 120.714 441.435 120.061C441.376 119.349 441.346 118.311 441.346 116.946C441.346 115.581 441.376 114.573 441.435 113.92C441.554 113.208 441.821 112.437 442.236 111.606C443.067 110.004 445.381 109.203 449.178 109.203C452.916 109.203 455.171 110.004 455.942 111.606C456.417 112.496 456.684 113.297 456.743 114.009C456.862 114.662 456.921 115.67 456.921 117.035C456.921 118.4 456.862 119.438 456.743 120.15C456.684 120.803 456.417 121.574 455.942 122.464ZM462.696 154.593C462.696 147.473 465.188 141.599 470.172 136.971C475.156 132.343 480.852 130.029 487.26 130.029C493.668 130.029 499.334 132.343 504.259 136.971C509.183 141.54 511.646 147.384 511.646 154.504C511.646 159.429 510.37 163.819 507.819 167.676C505.267 171.473 502.152 174.292 498.474 176.131C494.854 177.911 491.087 178.801 487.171 178.801C483.255 178.801 479.457 177.852 475.779 175.953C472.1 173.995 468.985 171.147 466.434 167.409C463.942 163.612 462.696 159.34 462.696 154.593ZM481.297 161.001C483.195 162.425 485.124 163.137 487.082 163.137C489.04 163.137 490.998 162.395 492.956 160.912C494.914 159.429 495.893 157.233 495.893 154.326C495.893 151.419 494.973 149.253 493.134 147.829C491.294 146.405 489.307 145.693 487.171 145.693C485.035 145.693 483.047 146.435 481.208 147.918C479.368 149.401 478.449 151.597 478.449 154.504C478.449 157.352 479.398 159.518 481.297 161.001Z" fill="white"/>
<path d="M178.43 125.935C179.972 129.08 180.744 132.58 180.744 136.437C180.744 140.294 179.972 143.794 178.43 146.939C176.887 150.024 174.899 152.487 172.467 154.326C167.542 158.123 162.439 160.022 157.159 160.022H146.034V170.079C146.034 171.444 145.974 172.482 145.856 173.194C145.796 173.847 145.529 174.618 145.055 175.508C144.224 177.11 141.91 177.911 138.113 177.911C133.959 177.911 131.527 176.813 130.815 174.618C130.459 173.609 130.281 172.067 130.281 169.99V120.595C130.281 119.23 130.31 118.222 130.37 117.569C130.488 116.857 130.785 116.056 131.26 115.166C132.09 113.564 134.404 112.763 138.202 112.763H157.248C162.469 112.763 167.542 114.662 172.467 118.459C174.899 120.298 176.887 122.79 178.43 125.935ZM157.248 144.269C159.028 144.269 160.778 143.616 162.499 142.311C164.219 141.006 165.08 139.048 165.08 136.437C165.08 133.826 164.219 131.868 162.499 130.563C160.778 129.198 158.998 128.516 157.159 128.516H146.034V144.269H157.248Z" fill="#D80000" fill-opacity="0.84"/>
</svg>
