<svg width="582" height="284" viewBox="0 0 582 284" fill="none" xmlns="http://www.w3.org/2000/svg">
<path d="M36 104.017C50.5022 87.0668 98.9832 76.8647 122.574 69.0349C184.782 48.3883 368.579 -16.9181 306.697 4.1231C239.644 26.9224 178.126 57.5999 114.648 84.194C113.879 84.5162 67.6527 103.704 91.7855 98.5757C153.198 85.5246 214.086 65.8145 270.116 45.3246C270.376 45.2295 340.069 16.7221 317.976 29.7769C256.882 65.8765 181.731 92.8367 114.039 123.452C100.577 129.54 82.4007 133.475 75.0193 142.887C73.6523 144.63 80.8959 141.71 83.5548 140.749C107.969 131.921 157.176 110.937 174.702 103.434C235.312 77.4867 292.633 47.6605 354.251 22.7804C370.928 16.0469 329.091 42.2001 315.537 51.3494C281.055 74.6264 272.413 79.4259 235.669 102.851C230.631 106.063 157.832 145.622 162.203 156.491C163.361 159.37 171.467 155.063 175.311 153.381C189.091 147.355 201.85 140.418 214.635 133.558C276.077 100.59 334.789 65.6037 396.319 32.6921C403.92 28.6267 435.505 11.6004 409.732 27.4447C343.106 68.4042 274.791 108.328 207.319 148.717C166.862 172.935 125.955 196.852 85.9935 221.403C73.4085 229.135 44.6396 246.525 85.9935 227.622C173.616 187.569 252.741 141.221 337.79 99.353C405.466 66.0376 221.699 179.827 156.106 214.795C147.998 219.118 139.776 223.376 131.11 227.233C127.808 228.703 136.876 223.644 139.95 221.986C517.361 18.3888 -348.914 487.431 265.848 154.742C307.718 132.083 348.847 108.866 391.137 86.5261C427.215 67.4681 397.635 89.6343 390.832 95.4661C385.427 100.099 308.037 159.682 346.935 141.915C397.164 118.973 437.008 84.7797 489.6 64.3706C502.98 59.1781 467.271 78.3808 456.068 85.3601C398.145 121.442 341.156 158.117 283.529 194.389C266.035 205.4 252.703 220.829 229.877 226.65C226.657 227.471 233.222 222.753 235.364 221.014C258.546 202.204 283.301 184.204 307.306 165.82C332.425 146.582 382.579 107.952 409.122 88.4696C427.027 75.3276 474.583 34.6762 466.737 51.3494C461.843 61.7503 443.682 67.3581 431.376 74.8653C363.692 116.154 293.692 155.872 226.219 197.304C211.522 206.329 196.899 215.416 182.932 224.901C178.174 228.132 163.911 233.414 170.129 235.396C177.346 237.696 184.224 230.356 190.858 227.428C219.023 214.996 298.834 176.466 318.28 167.18C354.941 149.674 405.606 125.386 444.484 107.321C494.651 84.0113 447.037 112.352 437.777 118.788C404.757 141.736 381.877 157.1 349.374 180.59C339.123 187.999 328.977 195.472 319.195 203.134C312.619 208.285 295.723 220.336 317.366 210.714C337.482 201.77 402.366 168.37 412.78 163.099C416.865 161.031 512.114 104.406 528.619 104.406C534.594 104.406 519.508 109.342 515.206 111.986C502.635 119.711 490.204 127.531 478.016 135.502C427.564 168.494 380.185 203.669 327.73 235.396C324.103 237.59 315.222 244.389 315.842 241.226C316.618 237.265 323.821 235.049 328.34 232.286C367.352 208.437 410.71 187.193 453.019 165.82C464.648 159.945 482.673 140.547 488.99 149.106C490.779 151.529 484.758 153.744 482.284 155.908C466.908 169.358 446.661 184.579 430.461 196.915C425.222 200.904 386.307 230.44 375.59 237.728C373.81 238.938 369.393 242.496 369.493 240.838C369.979 232.788 381.523 226.665 387.174 219.459" stroke="#082C63" stroke-width="12" stroke-linecap="square"/>
<path d="M3.996 136.65C2.072 135.713 1.11 134.011 1.11 131.544C1.11 129.077 2.09667 127.351 4.07 126.364C20.9913 116.349 30.71 110.577 33.226 109.048C35.742 107.519 37.2467 106.68 37.74 106.532C38.2827 106.285 38.924 106.162 39.664 106.162C40.996 106.162 42.3773 107.371 43.808 109.788C44.7453 111.317 45.214 112.477 45.214 113.266C45.214 114.006 45.0413 114.647 44.696 115.19C44.252 115.979 43.2407 116.892 41.662 117.928C26.9607 126.611 19.314 131.149 18.722 131.544L41.662 145.16C42.5993 145.703 43.2653 146.147 43.66 146.492C44.7453 147.38 45.288 148.342 45.288 149.378C45.288 150.365 44.844 151.573 43.956 153.004C43.1173 154.385 42.3527 155.372 41.662 155.964C40.9713 156.556 40.256 156.852 39.516 156.852C38.5293 156.852 37.2467 156.383 35.668 155.446L3.996 136.65ZM107.001 104.83C107.395 105.57 107.617 106.236 107.667 106.828C107.765 107.42 107.815 108.283 107.815 109.418V150.488C107.815 153.892 106.877 155.89 105.003 156.482C104.065 156.778 102.881 156.926 101.451 156.926C100.02 156.926 98.8852 156.803 98.0465 156.556C97.2079 156.309 96.5665 156.013 96.1225 155.668C95.6785 155.323 95.3332 154.829 95.0865 154.188C94.8399 153.349 94.7165 152.067 94.7165 150.34V125.55C93.4832 127.079 91.6825 129.521 89.3145 132.876C86.9465 136.181 85.4419 138.253 84.8005 139.092C84.1592 139.931 83.7152 140.523 83.4685 140.868C83.2219 141.164 82.6052 141.608 81.6185 142.2C80.6812 142.743 79.6452 143.014 78.5105 143.014C77.4252 143.014 76.4139 142.767 75.4765 142.274C74.5885 141.731 73.9472 141.213 73.5525 140.72L72.9605 139.906C71.9739 138.673 70.0252 136.058 67.1145 132.062C64.2039 128.017 62.6252 125.846 62.3785 125.55V150.488C62.3785 151.623 62.3292 152.486 62.2305 153.078C62.1812 153.621 61.9592 154.237 61.5645 154.928C60.8245 156.26 58.9005 156.926 55.7925 156.926C52.7832 156.926 50.9085 156.26 50.1685 154.928C49.7739 154.237 49.5272 153.596 49.4285 153.004C49.3792 152.412 49.3545 151.524 49.3545 150.34V109.27C49.3545 108.135 49.3792 107.297 49.4285 106.754C49.5272 106.162 49.7739 105.496 50.1685 104.756C50.9085 103.473 52.8325 102.832 55.9405 102.832C57.2725 102.832 58.4072 103.005 59.3445 103.35C60.3312 103.646 60.9725 103.967 61.2685 104.312L61.7125 104.756L78.5105 126.808C86.8972 115.708 92.4965 108.382 95.3085 104.83C96.1472 103.498 98.1205 102.832 101.229 102.832C104.386 102.832 106.31 103.498 107.001 104.83ZM150.003 118.446C152.914 119.729 154.369 121.283 154.369 123.108C154.369 123.996 154.172 124.835 153.777 125.624C153.383 126.413 153.185 126.833 153.185 126.882L133.797 170.246C133.403 171.183 133.057 171.899 132.761 172.392C132.515 172.885 132.095 173.354 131.503 173.798C130.911 174.242 130.171 174.464 129.283 174.464C128.395 174.464 127.088 174.094 125.361 173.354C122.451 172.071 120.995 170.542 120.995 168.766C120.995 167.582 123.363 161.933 128.099 151.82L113.373 127.03C112.387 125.402 111.893 124.193 111.893 123.404C111.893 121.825 113.225 120.247 115.889 118.668C117.567 117.681 118.874 117.188 119.811 117.188C120.749 117.188 121.513 117.385 122.105 117.78C122.697 118.175 123.117 118.594 123.363 119.038C123.659 119.433 125.016 121.727 127.433 125.92C129.9 130.064 132.243 133.937 134.463 137.538C134.71 136.749 136.042 133.715 138.459 128.436C140.877 123.108 142.159 120.271 142.307 119.926C142.505 119.581 142.801 119.161 143.195 118.668C143.837 117.829 144.725 117.41 145.859 117.41C147.043 117.41 148.425 117.755 150.003 118.446ZM204.049 137.538C204.049 131.618 206.121 126.734 210.265 122.886C214.409 119.038 219.145 117.114 224.473 117.114C229.801 117.114 234.513 119.038 238.607 122.886C242.702 126.685 244.749 131.544 244.749 137.464C244.749 141.559 243.689 145.209 241.567 148.416C239.446 151.573 236.856 153.917 233.797 155.446C230.788 156.926 227.655 157.666 224.399 157.666C221.143 157.666 217.986 156.877 214.927 155.298C211.869 153.67 209.279 151.302 207.157 148.194C205.085 145.037 204.049 141.485 204.049 137.538ZM219.515 142.866C221.094 144.05 222.697 144.642 224.325 144.642C225.953 144.642 227.581 144.025 229.209 142.792C230.837 141.559 231.651 139.733 231.651 137.316C231.651 134.899 230.887 133.098 229.357 131.914C227.828 130.73 226.175 130.138 224.399 130.138C222.623 130.138 220.971 130.755 219.441 131.988C217.912 133.221 217.147 135.047 217.147 137.464C217.147 139.832 217.937 141.633 219.515 142.866ZM276.022 118.446C276.96 118.742 277.724 119.26 278.316 120C278.958 120.691 279.278 121.825 279.278 123.404C279.278 124.983 278.81 126.709 277.872 128.584C276.935 130.459 275.578 131.396 273.802 131.396C272.914 131.396 272.051 131.199 271.212 130.804C270.423 130.409 269.362 130.212 268.03 130.212C266.698 130.212 265.44 130.681 264.256 131.618C263.122 132.555 262.554 133.69 262.554 135.022V150.562C262.554 151.697 262.505 152.56 262.406 153.152C262.357 153.695 262.135 154.336 261.74 155.076C261 156.359 259.076 157 255.968 157C253.6 157 251.898 156.581 250.862 155.742C250.073 155.051 249.629 153.991 249.53 152.56C249.53 152.067 249.53 151.351 249.53 150.414V124.44C249.53 123.305 249.555 122.467 249.604 121.924C249.703 121.332 249.925 120.691 250.27 120C250.961 118.668 252.885 118.002 256.042 118.002C259.002 118.002 260.852 118.569 261.592 119.704C262.135 120.493 262.406 121.307 262.406 122.146C262.653 121.801 262.998 121.381 263.442 120.888C263.936 120.395 264.947 119.729 266.476 118.89C268.006 118.051 269.338 117.632 270.472 117.632C271.656 117.632 272.643 117.706 273.432 117.854C274.222 117.953 275.085 118.15 276.022 118.446ZM305.995 131.1L301.185 130.804V141.016C301.185 142.348 301.382 143.31 301.777 143.902C302.221 144.494 303.01 144.79 304.145 144.79C305.329 144.79 306.217 144.839 306.809 144.938C307.45 144.987 308.116 145.209 308.807 145.604C309.941 146.245 310.509 147.898 310.509 150.562C310.509 153.67 309.818 155.569 308.437 156.26C307.697 156.605 307.031 156.827 306.439 156.926C305.896 156.975 305.082 157 303.997 157C298.866 157 294.969 155.841 292.305 153.522C289.641 151.203 288.309 147.281 288.309 141.756V130.804C287.371 130.952 286.36 131.026 285.275 131.026C284.189 131.026 283.277 130.607 282.537 129.768C281.846 128.929 281.501 127.499 281.501 125.476C281.501 123.453 281.624 121.998 281.871 121.11C282.117 120.173 282.463 119.507 282.907 119.112C283.696 118.471 284.683 118.15 285.867 118.15L288.309 118.446V110.824C288.309 109.689 288.333 108.851 288.383 108.308C288.481 107.765 288.728 107.173 289.123 106.532C289.764 105.299 291.663 104.682 294.821 104.682C298.175 104.682 300.173 105.595 300.815 107.42C301.061 108.209 301.185 109.467 301.185 111.194V118.446C303.355 118.249 304.983 118.15 306.069 118.15C307.203 118.15 308.042 118.199 308.585 118.298C309.177 118.347 309.843 118.569 310.583 118.964C311.865 119.605 312.507 121.505 312.507 124.662C312.507 127.77 311.841 129.669 310.509 130.36C309.769 130.705 309.103 130.927 308.511 131.026C307.968 131.075 307.129 131.1 305.995 131.1ZM339.385 118.076C342.789 118.076 344.787 119.013 345.379 120.888C345.675 121.825 345.823 123.059 345.823 124.588C345.823 126.117 345.65 127.351 345.305 128.288C345.009 129.176 344.515 129.817 343.825 130.212C342.789 130.804 341.284 131.1 339.311 131.1L334.575 130.804V150.636C334.575 152.511 334.328 153.917 333.835 154.854C333.391 155.742 332.675 156.334 331.689 156.63C330.751 156.926 329.518 157.074 327.989 157.074C326.459 157.074 325.226 156.926 324.289 156.63C323.401 156.285 322.759 155.767 322.365 155.076C321.97 154.336 321.723 153.67 321.625 153.078C321.575 152.486 321.551 151.623 321.551 150.488V130.878H318.887C317.604 130.779 316.691 130.483 316.149 129.99C315.211 129.053 314.743 127.252 314.743 124.588C314.743 120.543 316.198 118.52 319.109 118.52H321.551V114.598C321.551 110.799 322.907 107.371 325.621 104.312C328.334 101.204 332.256 99.65 337.387 99.65C338.521 99.65 339.36 99.6993 339.903 99.798C340.495 99.8473 341.161 100.069 341.901 100.464C343.233 101.105 343.899 103.005 343.899 106.162C343.899 108.53 343.479 110.232 342.641 111.268C341.95 112.057 340.865 112.501 339.385 112.6C338.941 112.6 338.25 112.6 337.313 112.6C335.487 112.6 334.575 113.217 334.575 114.45V118.52L339.385 118.076ZM347.352 137.538C347.352 131.618 349.424 126.734 353.568 122.886C357.712 119.038 362.448 117.114 367.776 117.114C373.104 117.114 377.815 119.038 381.91 122.886C386.005 126.685 388.052 131.544 388.052 137.464C388.052 141.559 386.991 145.209 384.87 148.416C382.749 151.573 380.159 153.917 377.1 155.446C374.091 156.926 370.958 157.666 367.702 157.666C364.446 157.666 361.289 156.877 358.23 155.298C355.171 153.67 352.581 151.302 350.46 148.194C348.388 145.037 347.352 141.485 347.352 137.538ZM362.818 142.866C364.397 144.05 366 144.642 367.628 144.642C369.256 144.642 370.884 144.025 372.512 142.792C374.14 141.559 374.954 139.733 374.954 137.316C374.954 134.899 374.189 133.098 372.66 131.914C371.131 130.73 369.478 130.138 367.702 130.138C365.926 130.138 364.273 130.755 362.744 131.988C361.215 133.221 360.45 135.047 360.45 137.464C360.45 139.832 361.239 141.633 362.818 142.866ZM392.833 106.162C392.833 105.027 392.858 104.189 392.907 103.646C393.006 103.054 393.228 102.388 393.573 101.648C394.264 100.316 396.188 99.65 399.345 99.65C402.354 99.65 404.229 100.316 404.969 101.648C405.364 102.388 405.586 103.054 405.635 103.646C405.734 104.238 405.783 105.101 405.783 106.236V140.498C405.783 142.274 405.931 143.409 406.227 143.902C406.523 144.346 407.164 144.568 408.151 144.568C409.187 144.568 409.878 144.617 410.223 144.716C410.568 144.765 410.988 144.963 411.481 145.308C412.468 145.949 412.961 147.701 412.961 150.562C412.961 153.67 412.468 155.569 411.481 156.26C410.198 157.148 407.14 157.296 402.305 156.704C398.506 156.211 396.04 154.953 394.905 152.93C393.524 150.513 392.833 146.665 392.833 141.386V106.162ZM417.042 124.514C417.042 123.379 417.067 122.541 417.116 121.998C417.215 121.406 417.437 120.74 417.782 120C418.473 118.717 420.397 118.076 423.554 118.076C425.922 118.076 427.599 118.495 428.586 119.334C429.425 120.025 429.869 121.085 429.918 122.516C429.967 123.009 429.992 123.725 429.992 124.662V150.562C429.992 151.697 429.943 152.56 429.844 153.152C429.795 153.695 429.573 154.336 429.178 155.076C428.537 156.359 426.637 157 423.48 157C420.372 157 418.473 156.334 417.782 155.002C417.437 154.262 417.215 153.621 417.116 153.078C417.067 152.535 417.042 151.672 417.042 150.488V124.514ZM429.178 110.824C428.833 111.515 428.191 112.008 427.254 112.304C426.317 112.6 425.059 112.748 423.48 112.748C421.951 112.748 420.717 112.6 419.78 112.304C418.843 112.008 418.177 111.49 417.782 110.75C417.437 110.01 417.215 109.369 417.116 108.826C417.067 108.234 417.042 107.371 417.042 106.236C417.042 105.101 417.067 104.263 417.116 103.72C417.215 103.128 417.437 102.487 417.782 101.796C418.473 100.464 420.397 99.798 423.554 99.798C426.662 99.798 428.537 100.464 429.178 101.796C429.573 102.536 429.795 103.202 429.844 103.794C429.943 104.337 429.992 105.175 429.992 106.31C429.992 107.445 429.943 108.308 429.844 108.9C429.795 109.443 429.573 110.084 429.178 110.824ZM434.793 137.538C434.793 131.618 436.865 126.734 441.009 122.886C445.153 119.038 449.889 117.114 455.217 117.114C460.545 117.114 465.257 119.038 469.351 122.886C473.446 126.685 475.493 131.544 475.493 137.464C475.493 141.559 474.433 145.209 472.311 148.416C470.19 151.573 467.6 153.917 464.541 155.446C461.532 156.926 458.399 157.666 455.143 157.666C451.887 157.666 448.73 156.877 445.671 155.298C442.613 153.67 440.023 151.302 437.901 148.194C435.829 145.037 434.793 141.485 434.793 137.538ZM450.259 142.866C451.838 144.05 453.441 144.642 455.069 144.642C456.697 144.642 458.325 144.025 459.953 142.792C461.581 141.559 462.395 139.733 462.395 137.316C462.395 134.899 461.631 133.098 460.101 131.914C458.572 130.73 456.919 130.138 455.143 130.138C453.367 130.138 451.715 130.755 450.185 131.988C448.656 133.221 447.891 135.047 447.891 137.464C447.891 139.832 448.681 141.633 450.259 142.866ZM509.055 157.592C508.661 158.431 508.34 159.047 508.093 159.442C507.896 159.837 507.526 160.207 506.983 160.552C506.49 160.947 505.824 161.144 504.985 161.144C504.147 161.144 502.913 160.774 501.285 160.034C499.657 159.294 498.547 158.628 497.955 158.036C497.413 157.493 497.141 156.877 497.141 156.186C497.141 155.495 497.437 154.262 498.029 152.486L521.857 102.684C522.795 100.809 523.633 99.724 524.373 99.428C524.768 99.2307 525.335 99.132 526.075 99.132C526.865 99.132 528.123 99.5267 529.849 100.316C532.513 101.599 533.845 103.005 533.845 104.534C533.845 105.175 533.5 106.409 532.809 108.234L509.055 157.592ZM577.236 126.364C579.21 127.351 580.196 129.077 580.196 131.544C580.196 134.011 579.234 135.713 577.31 136.65L545.712 155.446C543.196 157.074 541.174 157.247 539.644 155.964C538.954 155.372 538.238 154.484 537.498 153.3C536.512 151.672 536.018 150.488 536.018 149.748C536.018 149.008 536.166 148.367 536.462 147.824C537.005 146.985 538.066 146.097 539.644 145.16L562.658 131.544L539.718 117.928C538.83 117.385 538.164 116.941 537.72 116.596C536.635 115.659 536.092 114.647 536.092 113.562C536.092 112.575 536.512 111.391 537.35 110.01C538.88 107.445 540.31 106.162 541.642 106.162C542.826 106.162 544.158 106.631 545.638 107.568L577.236 126.364Z" fill="white"/>
<path d="M198.437 113.71C199.72 116.325 200.361 119.235 200.361 122.442C200.361 125.649 199.72 128.559 198.437 131.174C197.155 133.739 195.502 135.787 193.479 137.316C189.385 140.473 185.142 142.052 180.751 142.052H171.501V150.414C171.501 151.549 171.452 152.412 171.353 153.004C171.304 153.547 171.082 154.188 170.687 154.928C169.997 156.26 168.073 156.926 164.915 156.926C161.462 156.926 159.439 156.013 158.847 154.188C158.551 153.349 158.403 152.067 158.403 150.34V109.27C158.403 108.135 158.428 107.297 158.477 106.754C158.576 106.162 158.823 105.496 159.217 104.756C159.908 103.424 161.832 102.758 164.989 102.758H180.825C185.167 102.758 189.385 104.337 193.479 107.494C195.502 109.023 197.155 111.095 198.437 113.71ZM180.825 128.954C182.305 128.954 183.761 128.411 185.191 127.326C186.622 126.241 187.337 124.613 187.337 122.442C187.337 120.271 186.622 118.643 185.191 117.558C183.761 116.423 182.281 115.856 180.751 115.856H171.501V128.954H180.825Z" fill="#D80000" fill-opacity="0.97"/>
</svg>
