<svg width="81" height="81" viewBox="0 0 81 81" fill="none" xmlns="http://www.w3.org/2000/svg">
<path d="M68.2812 12.1094C60.9141 4.5625 50.8516 0.25 40.0703 0.25C18.1484 0.25 0.179688 18.2188 0.179688 40.1406C0.179688 47.3281 2.15625 54.1562 5.57031 60.0859L0 80.75L21.0234 75.3594C26.9531 78.4141 33.4219 80.2109 40.0703 80.2109C62.1719 80.2109 80.5 62.2422 80.5 40.3203C80.5 29.5391 75.8281 19.6562 68.2812 12.1094ZM40.0703 73.3828C34.1406 73.3828 28.3906 71.7656 23.1797 68.7109L22.1016 67.9922L9.52344 71.4062L12.9375 59.1875L12.0391 57.9297C8.80469 52.5391 7.00781 46.4297 7.00781 40.1406C7.00781 21.9922 21.9219 7.07812 40.25 7.07812C49.0547 7.07812 57.3203 10.4922 63.6094 16.7812C69.8984 23.0703 73.6719 31.3359 73.6719 40.3203C73.6719 58.4688 58.3984 73.3828 40.0703 73.3828ZM58.3984 48.5859C57.3203 48.0469 52.4688 45.7109 51.5703 45.3516C50.6719 44.9922 49.9531 44.8125 49.2344 45.8906C48.6953 46.7891 46.7188 49.125 46.1797 49.8438C45.4609 50.3828 44.9219 50.5625 44.0234 50.0234C38.0938 47.1484 34.3203 44.8125 30.3672 38.1641C29.2891 36.3672 31.4453 36.5469 33.2422 32.7734C33.6016 32.0547 33.4219 31.5156 33.2422 30.9766C33.0625 30.4375 30.9062 25.5859 30.1875 23.6094C29.2891 21.6328 28.5703 21.8125 27.8516 21.8125C27.3125 21.8125 26.5938 21.8125 26.0547 21.8125C25.3359 21.8125 24.2578 21.9922 23.3594 23.0703C22.4609 24.1484 19.9453 26.4844 19.9453 31.3359C19.9453 36.3672 23.3594 41.0391 23.8984 41.7578C24.4375 42.2969 30.9062 52.3594 40.9688 56.6719C47.2578 59.5469 49.7734 59.7266 53.0078 59.1875C54.8047 59.0078 58.7578 56.8516 59.6562 54.5156C60.5547 52.1797 60.5547 50.2031 60.1953 49.8438C60.0156 49.3047 59.2969 49.125 58.3984 48.5859Z" fill="white"/>
</svg>
